<svg width="120" height="120" viewBox="0 0 120 120" fill="none" xmlns="http://www.w3.org/2000/svg">
  <defs>
    <linearGradient id="hammerGrad" x1="20" y1="15" x2="100" y2="55">
      <stop offset="0%" stop-color="#00E0FF"/>
      <stop offset="100%" stop-color="#0088CC"/>
    </linearGradient>
    <linearGradient id="handleGrad" x1="55" y1="50" x2="65" y2="85">
      <stop offset="0%" stop-color="#0099DD"/>
      <stop offset="100%" stop-color="#006699"/>
    </linearGradient>
    <filter id="glow">
      <feGaussianBlur stdDeviation="2" result="blur"/>
      <feComposite in="SourceGraphic" in2="blur" operator="over"/>
    </filter>
  </defs>
  <rect x="24" y="22" width="72" height="24" rx="5" fill="url(#hammerGrad)"/>
  <rect x="24" y="22" width="72" height="4" rx="2" fill="white" opacity="0.15"/>
  <circle cx="20" cy="30" r="2.5" fill="#FF6B2B" filter="url(#glow)"/>
  <circle cx="14" cy="24" r="1.5" fill="#FF6B2B" opacity="0.7"/>
  <circle cx="17" cy="36" r="1" fill="#FF8844" opacity="0.5"/>
  <circle cx="103" cy="26" r="1.8" fill="#FF6B2B" opacity="0.6"/>
  <circle cx="108" cy="32" r="1" fill="#FF8844" opacity="0.4"/>
  <rect x="52" y="46" width="16" height="30" rx="5" fill="url(#handleGrad)"/>
  <line x1="55" y1="54" x2="63" y2="54" stroke="white" stroke-width="0.5" opacity="0.2"/>
  <line x1="55" y1="58" x2="63" y2="58" stroke="white" stroke-width="0.5" opacity="0.2"/>
  <line x1="55" y1="62" x2="63" y2="62" stroke="white" stroke-width="0.5" opacity="0.2"/>
  <circle cx="38" cy="86" r="5" stroke="#00D4FF" stroke-width="2.5" fill="#0A0F1E"/>
  <circle cx="38" cy="86" r="2" fill="#00D4FF"/>
  <circle cx="82" cy="86" r="5" stroke="#00D4FF" stroke-width="2.5" fill="#0A0F1E"/>
  <circle cx="82" cy="86" r="2" fill="#00D4FF"/>
  <circle cx="60" cy="102" r="6" stroke="#FF6B2B" stroke-width="2.5" fill="#0A0F1E"/>
  <circle cx="60" cy="102" r="2.5" fill="#FF6B2B"/>
  <line x1="42" y1="90" x2="55" y2="97" stroke="#00D4FF" stroke-width="2" stroke-linecap="round"/>
  <line x1="78" y1="90" x2="65" y2="97" stroke="#00D4FF" stroke-width="2" stroke-linecap="round"/>
  <line x1="60" y1="76" x2="60" y2="96" stroke="#006699" stroke-width="2" stroke-linecap="round" stroke-dasharray="3 3" opacity="0.4"/>
</svg>
